<?xml version="1.0" encoding="UTF-8" standalone="no"?>
<!-- Created with Inkscape (http://www.inkscape.org/) -->

<svg
   width="300mm"
   height="300mm"
   viewBox="0 0 300 300"
   version="1.1"
   id="svg1"
   inkscape:version="1.3.2 (091e20e, 2023-11-25)"
   sodipodi:docname="pet.svg"
   inkscape:export-filename="pet.png"
   inkscape:export-xdpi="96"
   inkscape:export-ydpi="96"
   xmlns:inkscape="http://www.inkscape.org/namespaces/inkscape"
   xmlns:sodipodi="http://sodipodi.sourceforge.net/DTD/sodipodi-0.dtd"
   xmlns:xlink="http://www.w3.org/1999/xlink"
   xmlns="http://www.w3.org/2000/svg"
   xmlns:svg="http://www.w3.org/2000/svg">
  <sodipodi:namedview
     id="namedview1"
     pagecolor="#ffffff"
     bordercolor="#000000"
     borderopacity="0.25"
     inkscape:showpageshadow="2"
     inkscape:pageopacity="0.0"
     inkscape:pagecheckerboard="0"
     inkscape:deskcolor="#d1d1d1"
     inkscape:document-units="mm"
     inkscape:zoom="0.34598773"
     inkscape:cx="420.53514"
     inkscape:cy="630.08015"
     inkscape:window-width="1656"
     inkscape:window-height="973"
     inkscape:window-x="731"
     inkscape:window-y="228"
     inkscape:window-maximized="0"
     inkscape:current-layer="layer1" />
  <defs
     id="defs1">
    <inkscape:path-effect
       effect="bspline"
       id="path-effect5"
       is_visible="true"
       lpeversion="1.3"
       weight="33.333333"
       steps="2"
       helper_size="0"
       apply_no_weight="true"
       apply_with_weight="true"
       only_selected="false"
       uniform="false" />
    <inkscape:path-effect
       effect="bspline"
       id="path-effect3"
       is_visible="true"
       lpeversion="1.3"
       weight="33.333333"
       steps="2"
       helper_size="0"
       apply_no_weight="true"
       apply_with_weight="true"
       only_selected="false"
       uniform="false" />
    <linearGradient
       id="linearGradient2"
       inkscape:collect="always">
      <stop
         style="stop-color:#31ffc0;stop-opacity:1;"
         offset="0"
         id="stop2" />
      <stop
         style="stop-color:#e2f2f2;stop-opacity:0.59810877;"
         offset="1"
         id="stop3" />
    </linearGradient>
    <inkscape:path-effect
       effect="bspline"
       id="path-effect2"
       is_visible="true"
       lpeversion="1.3"
       weight="33.333333"
       steps="2"
       helper_size="0"
       apply_no_weight="true"
       apply_with_weight="true"
       only_selected="false"
       uniform="false" />
    <linearGradient
       inkscape:collect="always"
       xlink:href="#linearGradient2"
       id="linearGradient3"
       x1="2.1945801"
       y1="149.50691"
       x2="299.01382"
       y2="149.50691"
       gradientUnits="userSpaceOnUse" />
    <inkscape:path-effect
       effect="bspline"
       id="path-effect3-3"
       is_visible="true"
       lpeversion="1.3"
       weight="33.333333"
       steps="2"
       helper_size="0"
       apply_no_weight="true"
       apply_with_weight="true"
       only_selected="false"
       uniform="false" />
    <inkscape:path-effect
       effect="bspline"
       id="path-effect3-3-6"
       is_visible="true"
       lpeversion="1.3"
       weight="33.333333"
       steps="2"
       helper_size="0"
       apply_no_weight="true"
       apply_with_weight="true"
       only_selected="false"
       uniform="false" />
    <inkscape:path-effect
       effect="bspline"
       id="path-effect5-4"
       is_visible="true"
       lpeversion="1.3"
       weight="33.333333"
       steps="2"
       helper_size="0"
       apply_no_weight="true"
       apply_with_weight="true"
       only_selected="false"
       uniform="false" />
    <inkscape:path-effect
       effect="bspline"
       id="path-effect3-3-0"
       is_visible="true"
       lpeversion="1.3"
       weight="33.333333"
       steps="2"
       helper_size="0"
       apply_no_weight="true"
       apply_with_weight="true"
       only_selected="false"
       uniform="false" />
  </defs>
  <g
     inkscape:label="Layer 1"
     inkscape:groupmode="layer"
     id="layer1">
    <circle
       style="fill:url(#linearGradient3);fill-opacity:0.93820202;stroke-width:0.288587;opacity:1"
       id="path1"
       cx="150.6042"
       cy="149.50691"
       r="148.40962" />
    <path
       style="opacity:0.54123711;fill:#e518ad;fill-opacity:0.85955101;stroke-width:0.264583"
       d="m 215.77816,235.15104 c 0.38236,-0.38236 0.89218,-8.79427 0.12744,-18.99064 -0.76474,-10.19637 -2.80395,-22.17672 -6.6276,-32.62797 -3.82365,-10.45124 -9.43148,-19.37279 -18.60823,-27.02004 -9.17676,-7.64725 -21.92181,-14.01978 -33.3927,-18.22576 -11.47088,-4.20597 -21.66693,-6.24518 -32.88293,-6.75498 -11.216,-0.5098 -23.45125,0.5098 -32.627938,1.78435 -9.176688,1.27455 -15.294319,2.80395 -19.882662,3.31376 -4.588343,0.50981 -7.647157,0 -8.411861,0.25492 -0.764703,0.25492 0.764701,1.27452 2.803978,6.62765 2.039276,5.35313 4.588235,15.03917 8.156998,24.4709 3.568763,9.43173 8.156888,18.60798 15.166952,27.02006 7.010065,8.41208 16.441213,16.05896 27.274953,22.04938 10.83373,5.99041 23.06898,10.32373 34.03005,12.36298 10.96107,2.03925 20.64732,1.78435 28.67693,1.27453 8.02961,-0.50983 14.40214,-1.27453 19.62776,-2.42162 5.22562,-1.1471 9.30404,-2.6765 11.72566,-4.0785 2.42161,-1.402 3.18631,-2.6765 3.69613,0.5099 0.50981,3.18641 0.76471,10.83344 1.14707,10.45108 z"
       id="path3"
       inkscape:path-effect="#path-effect3"
       inkscape:original-d="m 215.65071,243.18059 c 0.50981,-8.41191 1.01963,-16.82382 1.52944,-25.23572 -2.03929,-11.98084 -4.0785,-23.96119 -6.11775,-35.94179 -5.60805,-8.92189 -11.21588,-17.84344 -16.82382,-26.76516 -12.74557,-6.37278 -25.49062,-12.74531 -38.23594,-19.11797 -10.19645,-2.03929 -20.3925,-4.0785 -30.58875,-6.11775 -12.23575,1.01965 -24.471,2.03925 -36.706505,3.05888 -6.117873,1.52946 -12.235503,3.05887 -18.353251,4.58831 -3.058938,-0.50982 -6.117752,-1.01962 -9.176626,-1.52944 1.529466,1.01965 3.058874,2.03925 4.588311,3.05888 2.549114,9.68663 5.098074,19.37267 7.64719,29.05931 4.588408,9.17682 9.176533,18.35307 13.764939,27.52988 9.431721,7.64735 18.862872,15.29423 28.294592,22.94157 12.23575,4.33349 24.471,8.66681 36.70651,13.00022 9.68663,-0.25491 19.37288,-0.50982 29.05931,-0.76472 6.37279,-0.76474 12.74532,-1.52944 19.11798,-2.29416 4.07858,-1.52947 8.157,-3.05887 12.2355,-4.58831 0.76473,-1.27456 1.52943,-2.54906 2.29415,-3.8236 0.25492,7.64735 0.50981,15.29438 0.76472,22.94157 z"
       sodipodi:nodetypes="ccccccccccccccccccc"
       transform="matrix(1.3062907,0,0,1.3062907,-36.427305,-86.8937)" />
    <path
       style="opacity:0.27319588;fill:#e518ad;fill-opacity:0.80056179;stroke-width:0.264583"
       d="m 215.77816,235.15104 c 0.38236,-0.38236 0.89218,-8.79427 0.12744,-18.99064 -0.76474,-10.19637 -2.80395,-22.17672 -6.6276,-32.62797 -3.82365,-10.45124 -9.43148,-19.37279 -18.60823,-27.02004 -9.17676,-7.64725 -21.92181,-14.01978 -33.3927,-18.22576 -11.47088,-4.20597 -21.66693,-6.24518 -32.88293,-6.75498 -11.216,-0.5098 -23.45125,0.5098 -32.627938,1.78435 -9.176688,1.27455 -15.294319,2.80395 -19.882662,3.31376 -4.588343,0.50981 -7.647157,0 -8.411861,0.25492 -0.764703,0.25492 0.764701,1.27452 2.803978,6.62765 2.039276,5.35313 4.588235,15.03917 8.156998,24.4709 3.568763,9.43173 8.156888,18.60798 15.166952,27.02006 7.010065,8.41208 16.441213,16.05896 27.274953,22.04938 10.83373,5.99041 23.06898,10.32373 34.03005,12.36298 10.96107,2.03925 20.64732,1.78435 28.67693,1.27453 8.02961,-0.50983 14.40214,-1.27453 19.62776,-2.42162 5.22562,-1.1471 9.30404,-2.6765 11.72566,-4.0785 2.42161,-1.402 3.18631,-2.6765 3.69613,0.5099 0.50981,3.18641 0.76471,10.83344 1.14707,10.45108 z"
       id="path3-2"
       inkscape:path-effect="#path-effect3-3"
       inkscape:original-d="m 215.65071,243.18059 c 0.50981,-8.41191 1.01963,-16.82382 1.52944,-25.23572 -2.03929,-11.98084 -4.0785,-23.96119 -6.11775,-35.94179 -5.60805,-8.92189 -11.21588,-17.84344 -16.82382,-26.76516 -12.74557,-6.37278 -25.49062,-12.74531 -38.23594,-19.11797 -10.19645,-2.03929 -20.3925,-4.0785 -30.58875,-6.11775 -12.23575,1.01965 -24.471,2.03925 -36.706505,3.05888 -6.117873,1.52946 -12.235503,3.05887 -18.353251,4.58831 -3.058938,-0.50982 -6.117752,-1.01962 -9.176626,-1.52944 1.529466,1.01965 3.058874,2.03925 4.588311,3.05888 2.549114,9.68663 5.098074,19.37267 7.64719,29.05931 4.588408,9.17682 9.176533,18.35307 13.764939,27.52988 9.431721,7.64735 18.862872,15.29423 28.294592,22.94157 12.23575,4.33349 24.471,8.66681 36.70651,13.00022 9.68663,-0.25491 19.37288,-0.50982 29.05931,-0.76472 6.37279,-0.76474 12.74532,-1.52944 19.11798,-2.29416 4.07858,-1.52947 8.157,-3.05887 12.2355,-4.58831 0.76473,-1.27456 1.52943,-2.54906 2.29415,-3.8236 0.25492,7.64735 0.50981,15.29438 0.76472,22.94157 z"
       sodipodi:nodetypes="ccccccccccccccccccc"
       transform="matrix(1.3062907,0,0,1.3062907,-28.830798,-94.859515)" />
    <path
       style="opacity:0.273196;fill:#e518ad;fill-opacity:0.800562;stroke-width:0.264583"
       d="m 215.77816,235.15104 c 0.38236,-0.38236 0.89218,-8.79427 0.12744,-18.99064 -0.76474,-10.19637 -2.80395,-22.17672 -6.6276,-32.62797 -3.82365,-10.45124 -9.43148,-19.37279 -18.60823,-27.02004 -9.17676,-7.64725 -21.92181,-14.01978 -33.3927,-18.22576 -11.47088,-4.20597 -21.66693,-6.24518 -32.88293,-6.75498 -11.216,-0.5098 -23.45125,0.5098 -32.627938,1.78435 -9.176688,1.27455 -15.294319,2.80395 -19.882662,3.31376 -4.588343,0.50981 -7.647157,0 -8.411861,0.25492 -0.764703,0.25492 0.764701,1.27452 2.803978,6.62765 2.039276,5.35313 4.588235,15.03917 8.156998,24.4709 3.568763,9.43173 8.156888,18.60798 15.166952,27.02006 7.010065,8.41208 16.441213,16.05896 27.274953,22.04938 10.83373,5.99041 23.06898,10.32373 34.03005,12.36298 10.96107,2.03925 20.64732,1.78435 28.67693,1.27453 8.02961,-0.50983 14.40214,-1.27453 19.62776,-2.42162 5.22562,-1.1471 9.30404,-2.6765 11.72566,-4.0785 2.42161,-1.402 3.18631,-2.6765 3.69613,0.5099 0.50981,3.18641 0.76471,10.83344 1.14707,10.45108 z"
       id="path3-2-8"
       inkscape:path-effect="#path-effect3-3-6"
       inkscape:original-d="m 215.65071,243.18059 c 0.50981,-8.41191 1.01963,-16.82382 1.52944,-25.23572 -2.03929,-11.98084 -4.0785,-23.96119 -6.11775,-35.94179 -5.60805,-8.92189 -11.21588,-17.84344 -16.82382,-26.76516 -12.74557,-6.37278 -25.49062,-12.74531 -38.23594,-19.11797 -10.19645,-2.03929 -20.3925,-4.0785 -30.58875,-6.11775 -12.23575,1.01965 -24.471,2.03925 -36.706505,3.05888 -6.117873,1.52946 -12.235503,3.05887 -18.353251,4.58831 -3.058938,-0.50982 -6.117752,-1.01962 -9.176626,-1.52944 1.529466,1.01965 3.058874,2.03925 4.588311,3.05888 2.549114,9.68663 5.098074,19.37267 7.64719,29.05931 4.588408,9.17682 9.176533,18.35307 13.764939,27.52988 9.431721,7.64735 18.862872,15.29423 28.294592,22.94157 12.23575,4.33349 24.471,8.66681 36.70651,13.00022 9.68663,-0.25491 19.37288,-0.50982 29.05931,-0.76472 6.37279,-0.76474 12.74532,-1.52944 19.11798,-2.29416 4.07858,-1.52947 8.157,-3.05887 12.2355,-4.58831 0.76473,-1.27456 1.52943,-2.54906 2.29415,-3.8236 0.25492,7.64735 0.50981,15.29438 0.76472,22.94157 z"
       sodipodi:nodetypes="ccccccccccccccccccc"
       transform="matrix(1.3062907,0,0,1.3062907,-50.359051,-53.516545)" />
    <circle
       style="opacity:0.273196;fill:#fef7fc;fill-opacity:0.800562;stroke-width:0.236171"
       id="path4"
       cx="154.09084"
       cy="144.91423"
       r="50.853802" />
    <circle
       style="opacity:0.273196;fill:#fef7fc;fill-opacity:0.800562;stroke-width:0.236171"
       id="path4-1"
       cx="168.90543"
       cy="152.15288"
       r="50.853802" />
    <circle
       style="opacity:0.273196;fill:#fef7fc;fill-opacity:0.800562;stroke-width:0.236171"
       id="path4-1-7"
       cx="145.23878"
       cy="136.81436"
       r="50.853802" />
    <path
       style="opacity:0.42783505;fill:#180913;fill-opacity:0.800562;stroke-width:0.264583"
       d="m 367.06505,96.73693 c -0.76472,0.892175 -1.52945,4.46086 -2.29417,10.5787 -0.76473,6.11784 -1.52943,14.78448 -1.78434,23.06901 -0.2549,8.28453 0,16.18647 0.63728,25.3632 0.63728,9.17673 1.65688,19.62768 2.42161,26.63764 0.76472,7.00996 1.27451,10.57857 2.03924,7.5196 0.76473,-3.05897 1.78433,-12.74522 2.54906,-23.96122 0.76473,-11.216 1.27453,-23.96106 1.01962,-35.30449 -0.25492,-11.34343 -1.27452,-21.28458 -2.1667,-27.14744 -0.89218,-5.862868 -1.65689,-7.647175 -2.4216,-6.755 z"
       id="path5"
       inkscape:path-effect="#path-effect5"
       inkscape:original-d="m 367.06505,94.060416 c -0.76472,3.56869 -1.52945,7.137374 -2.29417,10.706064 -0.76473,8.66699 -1.52943,17.33363 -2.29415,26.00044 0.2549,7.90225 0.5098,15.80419 0.76472,23.70628 1.01965,10.45137 2.03925,20.90232 3.05888,31.35348 0.50982,3.56876 1.01962,7.13737 1.52942,10.70606 1.01965,-9.68663 2.03925,-19.37288 3.05888,-29.05932 0.50982,-12.74556 1.01962,-25.49062 1.52945,-38.23594 -1.01966,-9.94154 -2.03925,-19.88269 -3.05888,-29.824032 -0.76475,-1.784379 -1.52945,-3.568687 -2.29415,-5.353032 z"
       transform="matrix(0.99386795,0.17807229,-0.40631045,0.76008838,-149.66308,-33.903569)" />
    <path
       style="opacity:0.427835;fill:#180913;fill-opacity:0.800562;stroke-width:0.264583"
       d="m 367.06505,96.73693 c -0.76472,0.892175 -1.52945,4.46086 -2.29417,10.5787 -0.76473,6.11784 -1.52943,14.78448 -1.78434,23.06901 -0.2549,8.28453 0,16.18647 0.63728,25.3632 0.63728,9.17673 1.65688,19.62768 2.42161,26.63764 0.76472,7.00996 1.27451,10.57857 2.03924,7.5196 0.76473,-3.05897 1.78433,-12.74522 2.54906,-23.96122 0.76473,-11.216 1.27453,-23.96106 1.01962,-35.30449 -0.25492,-11.34343 -1.27452,-21.28458 -2.1667,-27.14744 -0.89218,-5.862868 -1.65689,-7.647175 -2.4216,-6.755 z"
       id="path5-1"
       inkscape:path-effect="#path-effect5-4"
       inkscape:original-d="m 367.06505,94.060416 c -0.76472,3.56869 -1.52945,7.137374 -2.29417,10.706064 -0.76473,8.66699 -1.52943,17.33363 -2.29415,26.00044 0.2549,7.90225 0.5098,15.80419 0.76472,23.70628 1.01965,10.45137 2.03925,20.90232 3.05888,31.35348 0.50982,3.56876 1.01962,7.13737 1.52942,10.70606 1.01965,-9.68663 2.03925,-19.37288 3.05888,-29.05932 0.50982,-12.74556 1.01962,-25.49062 1.52945,-38.23594 -1.01966,-9.94154 -2.03925,-19.88269 -3.05888,-29.824032 -0.76475,-1.784379 -1.52945,-3.568687 -2.29415,-5.353032 z"
       transform="matrix(0.99386795,0.17807229,-0.40631045,0.76008838,-144.15829,-35.539418)" />
  </g>
</svg>
